<svg xmlns="http://www.w3.org/2000/svg" fill="none" viewBox="0 0 512 512">
  <mask id="a" width="470" height="272" x="21" y="120" maskUnits="userSpaceOnUse" style="mask-type:luminance">
    <path fill="#fff" d="M491 120.12H21v271.8h470z"/>
  </mask>
  <g fill="currentColor" mask="url(#a)">
    <path d="M147.4 348.07H64.76a8.76 8.76 0 0 1 0-17.52h82.65a39.95 39.95 0 0 0 39.87-39.94c0-16.13-11.45-31.36-29.88-39.75a8.78 8.78 0 0 1-2.27-14.47 44.2 44.2 0 0 0 14.64-32.97c0-16.63-14.51-30.68-31.7-30.68H73.52v29.98l56.85 32.54a8.77 8.77 0 0 1 0 15.22L69.1 285.55a8.75 8.75 0 0 1-13.1-7.6v-65.06l-17.5-10.01v92.6a8.76 8.76 0 1 1-17.5 0V193.75a12.23 12.23 0 0 1 18.28-10.62L56 192.7v-28.73a8.75 8.75 0 0 1 8.75-8.76h73.3a49.3 49.3 0 0 1 34.69 14.2c9.36 9.17 14.52 21.25 14.52 34.01 0 13.62-4.3 26.44-12.3 37.1 18.63 11.98 29.8 30.4 29.8 50.09 0 31.69-25.73 57.47-57.37 57.47zM73.5 222.91v39.92l34.88-19.96zm201.37-67.72h24.31c11.46 0 17.62 4.7 17.62 13.64 0 4.7-2.39 8.24-6.24 10.4 5.62 1.85 9.54 5.85 9.54 12.49 0 9.4-7.92 14.33-19.62 14.33h-25.6zm22 19.96c3.62 0 5.47-1.7 5.47-4.47s-1.93-4.47-5.46-4.47h-7.85v8.94zm2.93 19.88c3.62 0 5.77-1.78 5.77-4.78s-2.15-4.78-5.77-4.78h-10.77v9.56zm23.9.85c0-6.09 3.86-10.17 12.24-12.1l9.62-2.24c1.7-.38 2.3-1.15 2.3-2.3 0-1.86-1.46-2.94-4.69-2.94-3.76 0-7.61 2.16-9.54 5.62l-9.69-5.78c3.16-5.78 10.16-10.63 19.77-10.63 11.7 0 16.85 5.78 16.85 16.41v11.95c0 1.46.69 2 2.23 2h1.31v10.1c-1.46.38-3.61.7-5.69.7-5 0-7.15-1.7-8.54-4.63-.3-.61-.54-.92-1-.92s-.69.3-1.23 1.07c-2.15 2.93-5.7 4.7-10.61 4.7-8.46 0-13.3-4.78-13.3-11.02zm17 1.46c3.93 0 7.16-2.39 7.16-8.17v-.7c-.46.7-1.23 1.08-2.7 1.4l-4.92 1.07c-2.3.54-3.61 1.62-3.61 3.31 0 1.7 1.53 3.08 4.07 3.08zm46.47 9.94c-12.38 0-19-6.25-19-16.88v-23.65h13.62v22.65c0 3.93 2 6.09 5.38 6.09s5.38-2.16 5.38-6.09v-22.65h13.62v23.65c0 10.63-6.61 16.88-19 16.88m45.3-.23c-13.62 0-21.54-8.7-21.54-20.65s8.62-20.65 20.54-20.65 19.77 8.55 19.77 20.73v3.23h-27.23c.77 4.32 4.23 6.24 8.39 6.24 3.69 0 5.84-1.38 8-4l9.46 7.01c-3.85 5.1-10.08 8.1-17.39 8.1zm5.69-25.9c-.93-3.15-3.3-5-6.85-5-3.53 0-6.15 1.85-7.07 5zm18.15-14.4h13.54v5c0 .47.15.7.54.7s.62-.23 1.38-1.47c2.08-3.39 5-4.93 8.7-4.93h.22l.16 13.72h-2.93c-5.46 0-8.07 2.54-8.07 8.4v17.87H456.3zm-154.59 98.9-13.85-17.5v29.13h-13v-50.85h11.46l16.85 21.34 16.23-21.34h11.15v50.85H317.5v-28.66l-13.16 17.02c-.54.7-.84.85-1.3.85-.48 0-.78-.16-1.32-.85m55.14 12.65c-13.62 0-21.54-8.7-21.54-20.65s8.62-20.65 20.55-20.65c11.92 0 19.76 8.55 19.76 20.72v3.24h-27.22c.77 4.31 4.23 6.24 8.38 6.24 3.7 0 5.85-1.38 8-4l9.46 7.01c-3.85 5.09-10.08 8.1-17.38 8.1zm5.7-25.9c-.93-3.15-3.31-5-6.85-5s-6.16 1.85-7.08 5zm46.3 22.66c0-.47-.23-.7-.61-.7-.46 0-.85.31-1.62.93a14 14 0 0 1-9 3.08c-10.38 0-17.76-8.47-17.76-20.73s7.38-20.73 17.77-20.73c4.38 0 7.3 1.7 9 3.08.76.62 1.15.93 1.6.93q.6 0 .62-.7v-16.87h13.54v53.94h-13.54zm-7.23-8.64c4.85 0 7.84-3.54 7.84-8.78s-3-8.78-7.84-8.78-8.08 3.54-8.08 8.78 3.08 8.78 8.08 8.78m35.68-45.53c4.54 0 7.77 2.77 7.77 6.94s-3.23 6.93-7.77 6.93-7.77-2.7-7.77-6.94 3.23-6.93 7.77-6.93m6.77 17.1v39.3h-13.54v-39.3zm6.12 29.13c0-6.08 3.84-10.17 12.22-12.1l9.62-2.23c1.7-.38 2.3-1.16 2.3-2.31 0-1.85-1.45-2.93-4.68-2.93-3.77 0-7.62 2.16-9.54 5.62l-9.69-5.78c3.15-5.78 10.15-10.63 19.77-10.63 11.69 0 16.84 5.78 16.84 16.41v11.95c0 1.46.7 2 2.23 2h1.32v10.1c-1.47.38-3.62.7-5.7.7-5 0-7.15-1.7-8.53-4.63-.31-.62-.55-.93-1-.93-.47 0-.7.31-1.24 1.08-2.15 2.93-5.69 4.7-10.61 4.7-8.46 0-13.3-4.78-13.3-11.02zm16.99 1.47c3.92 0 7.15-2.4 7.15-8.17v-.7c-.46.7-1.23 1.08-2.7 1.39l-4.91 1.08c-2.3.54-3.62 1.61-3.62 3.3 0 1.7 1.53 3.1 4.08 3.1m-195.62 53.99c0-15.03 10.77-26.67 27.68-26.67 10.77 0 18.46 4.86 23.54 12.64l-12 6.63c-2.07-3.93-5.84-6.55-11.54-6.55-8.07 0-13.23 5.63-13.23 13.95s5.16 13.79 13.23 13.79c5.38 0 9.62-2.54 11.46-6.63l-8.15-7.7c-.7-.62-.92-1.16-.92-1.55 0-.7.46-1.23 1.54-1.23h22.7v1.7c0 21.5-14.16 28.27-26.62 28.27-16.92 0-27.69-11.63-27.69-26.66m59.3-13.86h13.54v5c0 .47.15.7.54.7.38 0 .6-.23 1.38-1.47 2.07-3.39 5-4.93 8.69-4.93h.23l.15 13.72h-2.92c-5.47 0-8.08 2.54-8.08 8.4v17.87h-13.54zm26.3 19.65c0-12.18 9.15-20.65 21.69-20.65 12.53 0 21.61 8.47 21.61 20.65S391.24 349 378.86 349s-21.7-8.48-21.7-20.65m21.69 8.7c5 0 8.15-3.54 8.15-8.7s-3.15-8.7-8.15-8.7-8.23 3.54-8.23 8.7 3.16 8.7 8.23 8.7m44.55 12.18c-12.4 0-19-6.25-19-16.88V308.7H418v22.65c0 3.93 2 6.08 5.38 6.08s5.38-2.15 5.38-6.08V308.7h13.62v23.65c0 10.63-6.61 16.88-19 16.88m25.09-40.53H462v2.23q.02.7.61.7c.47 0 .85-.31 1.62-.93a14 14 0 0 1 9-3.08c10.38 0 17.76 8.47 17.76 20.73s-7.38 20.73-17.76 20.73c-4.39 0-7.31-1.7-9-3.08-.77-.62-1.15-.93-1.62-.93q-.58 0-.6.7v17.64h-13.55zm20.76 28.43c5 0 8.08-3.54 8.08-8.78s-3.08-8.79-8.08-8.79-7.84 3.55-7.84 8.79 3 8.78 7.84 8.78"/>
  </g>
</svg>
