<svg xmlns="http://www.w3.org/2000/svg" viewBox="0 0 512 512" fill="none"><path fill="currentColor" fill-rule="evenodd" d="M410.504 248.766c-4.787 0-9.11-1.075-12.92-3.201-3.835-2.126-6.863-5.23-9.111-9.311-2.246-4.081-3.37-9.018-3.37-14.883s1.124-10.851 3.37-14.907c2.248-4.082 5.276-7.185 9.111-9.287 3.834-2.126 8.158-3.177 12.92-3.177s9.086 1.051 12.92 3.177c3.835 2.126 6.888 5.205 9.135 9.287 2.247 4.081 3.37 9.066 3.37 14.931 0 5.866-1.123 10.851-3.37 14.908-2.247 4.081-5.3 7.185-9.135 9.286-3.834 2.126-8.133 3.177-12.92 3.177m-6.619-41.618c-1.832 1.222-3.248 3.055-4.225 5.45q-1.465 3.592-1.465 8.797 0 5.206 1.465 8.798c.977 2.395 2.393 4.204 4.225 5.45 1.832 1.222 4.03 1.857 6.595 1.857s4.762-.611 6.594-1.857c1.832-1.222 3.224-3.055 4.225-5.45q1.466-3.592 1.466-8.798t-1.466-8.797c-.976-2.395-2.393-4.204-4.225-5.45-1.832-1.222-4.054-1.857-6.594-1.857s-4.738.61-6.595 1.857m-121.656 41.618c4.446 0 8.231-.635 11.382-1.93s5.569-3.128 7.254-5.548c1.661-2.419 2.515-5.303 2.54-8.675q-.037-3.227-1.099-5.792c-.708-1.711-1.759-3.226-3.126-4.546-1.393-1.319-3.078-2.468-5.105-3.421s-4.348-1.735-6.985-2.297l-4.592-1.051a25 25 0 0 1-3.273-.904c-.977-.367-1.807-.758-2.491-1.222-.684-.465-1.197-1.002-1.563-1.613-.367-.611-.513-1.296-.489-2.102.024-.978.293-1.833.855-2.59.537-.758 1.392-1.345 2.491-1.784s2.491-.66 4.152-.66c2.516 0 4.445.537 5.813 1.613 1.344 1.075 2.125 2.566 2.296 4.472v.049h12.432c-.024-3.324-.879-6.232-2.565-8.749s-4.03-4.472-7.082-5.865c-3.054-1.393-6.644-2.102-10.771-2.102s-7.645.684-10.796 2.077c-3.175 1.393-5.642 3.324-7.425 5.817-1.807 2.492-2.686 5.376-2.662 8.675-.024 4.057 1.294 7.258 3.957 9.629 2.637 2.37 6.277 4.081 10.893 5.132l5.568 1.295c1.955.44 3.542.929 4.812 1.466 1.27.538 2.198 1.173 2.809 1.882.586.709.903 1.589.928 2.591a4.66 4.66 0 0 1-1.026 2.859c-.659.831-1.612 1.491-2.833 1.955s-2.711.709-4.445.709q-2.821 0-4.983-.88c-1.441-.611-2.564-1.466-3.37-2.615s-1.27-2.59-1.368-4.301h-12.334c.049 4.179 1.001 7.625 2.833 10.337 1.832 2.713 4.396 4.741 7.718 6.085 3.297 1.345 7.181 2.004 11.65 2.004m-111.788-.733h12.896v-21.432h21.175v-10.484h-21.175v-10.924h23.496v-10.46h-36.392zm173.337-21.408h-21.005v21.432h-12.872v-53.324h12.872v21.408h21.005v-21.408h12.847v53.324h-12.847zm33.778-31.892h-12.871v53.324h12.871zm98.404 0v30.719h-.439l-20.981-30.719h-11.088v53.324h12.871V217.29h.343l21.201 30.767h10.916v-53.324zM246.424 304.534a9 9 0 0 0 2.222-2.565c.586-1.027.978-2.176 1.221-3.446l13.018.073c-.219 2.37-.903 4.692-2.051 6.989s-2.687 4.375-4.665 6.257-4.396 3.372-7.23 4.496c-2.832 1.1-6.081 1.662-9.745 1.662-4.811 0-9.134-1.051-12.945-3.201q-5.715-3.19-9.012-9.311c-2.198-4.081-3.297-9.018-3.297-14.884 0-5.864 1.123-10.85 3.346-14.907 2.247-4.081 5.276-7.185 9.086-9.286 3.81-2.126 8.084-3.177 12.822-3.177 3.224 0 6.204.44 8.94 1.344s5.153 2.199 7.229 3.91c2.076 1.71 3.761 3.812 5.08 6.281 1.319 2.419 2.125 5.254 2.418 8.455h-13.018c-.171-1.344-.537-2.541-1.074-3.617a8.8 8.8 0 0 0-2.126-2.761c-.879-.758-1.929-1.344-3.125-1.76-1.197-.415-2.541-.61-4.006-.61q-3.884 0-6.668 1.906c-1.856 1.27-3.297 3.103-4.299 5.498-1.001 2.395-1.489 5.157-1.489 8.7 0 3.544.513 6.501 1.514 8.896 1.026 2.395 2.442 4.179 4.298 5.401 1.857 1.197 4.03 1.808 6.571 1.808 1.416 0 2.711-.171 3.883-.538a9.6 9.6 0 0 0 3.102-1.613m33.973-40.641h-12.871v53.325l30.896-.122v-10.264l-18.025-.073zm43.573-.732c4.763 0 9.086 1.05 12.92 3.177 3.835 2.126 6.888 5.205 9.135 9.286s3.37 9.066 3.37 14.932-1.123 10.851-3.37 14.907c-2.247 4.082-5.3 7.185-9.135 9.287-3.834 2.126-8.133 3.177-12.92 3.177s-9.11-1.076-12.92-3.201c-3.835-2.127-6.863-5.231-9.111-9.312-2.246-4.081-3.37-9.017-3.37-14.883s1.124-10.85 3.37-14.907c2.248-4.081 5.276-7.185 9.111-9.286 3.834-2.127 8.157-3.177 12.92-3.177m6.57 41.642c1.832-1.222 3.224-3.055 4.225-5.45q1.466-3.592 1.466-8.797 0-5.206-1.466-8.798c-.976-2.395-2.393-4.203-4.225-5.45-1.832-1.222-4.054-1.857-6.594-1.857s-4.739.611-6.595 1.857c-1.832 1.222-3.248 3.055-4.225 5.45q-1.466 3.592-1.466 8.798t1.466 8.797c.977 2.395 2.393 4.204 4.225 5.45 1.832 1.222 4.03 1.858 6.595 1.858s4.762-.612 6.594-1.858m55.858-40.91v33.286c0 1.832-.416 3.47-1.222 4.912a8.83 8.83 0 0 1-3.395 3.372c-1.441.807-3.126 1.222-5.055 1.222-1.93 0-3.615-.415-5.081-1.222a8.5 8.5 0 0 1-3.394-3.372c-.806-1.442-1.221-3.08-1.221-4.912v-33.286h-12.872v34.385c0 3.984.928 7.454 2.809 10.387 1.881 2.932 4.518 5.205 7.889 6.818q5.092 2.42 11.87 2.419c4.518 0 8.426-.806 11.796-2.419q5.093-2.42 7.914-6.818c1.88-2.957 2.833-6.403 2.833-10.387v-34.385zm37.93 0c5.422 0 10.111 1.076 14.044 3.202q5.898 3.19 9.086 9.164c2.124 3.984 3.199 8.725 3.199 14.272s-1.075 10.338-3.199 14.321c-2.125 3.984-5.154 7.063-9.086 9.189-3.933 2.102-8.597 3.177-14.019 3.177h-19.686v-53.325zm7.132 40.812c2.076-1.026 3.639-2.663 4.714-4.96 1.074-2.298 1.612-5.377 1.612-9.214s-.538-6.891-1.612-9.189c-1.075-2.272-2.663-3.934-4.739-4.936-2.1-1.027-4.664-1.515-7.717-1.515h-6.131v31.33h6.277c2.98 0 5.52-.513 7.596-1.516m-204.234-56.769c2.785 0 5.203-.367 7.279-1.1s3.785-1.736 5.178-2.982 2.467-2.566 3.224-4.008h.415v7.087h12.114v-34.507c0-3.421-.635-6.28-1.929-8.553-1.295-2.297-3.005-4.106-5.105-5.425-2.1-1.32-4.445-2.273-6.985-2.859a34.4 34.4 0 0 0-7.694-.88c-3.737 0-7.156.537-10.233 1.588s-5.691 2.64-7.816 4.766c-2.125 2.101-3.664 4.741-4.592 7.869l11.748 1.613c.635-1.76 1.832-3.299 3.639-4.595 1.808-1.295 4.25-1.955 7.327-1.955s5.154.685 6.717 2.078c1.539 1.368 2.32 3.348 2.32 5.865v.195c0 1.173-.439 1.54-1.343 2.077-.879.538-2.418 1.222-4.25 1.687-1.306.335-2.934.463-4.835.613-.872.069-1.802.142-2.785.242a57 57 0 0 0-7.523 1.295c-2.417.587-4.591 1.442-6.521 2.591-1.929 1.148-3.443 2.664-4.567 4.57-1.099 1.906-1.661 4.301-1.661 7.209 0 3.373.782 6.232 2.345 8.529 1.563 2.322 3.688 4.057 6.399 5.23s5.74 1.76 9.134 1.76m-4.469-19.576c.855-.977 1.978-1.979 3.517-2.321 1.114-.244 2.252-.376 3.495-.521.501-.058 1.02-.118 1.561-.188.458-.054.961-.123 1.513-.198q.672-.094 1.442-.193c1.03-.134 2.08-.31 3.151-.489l.293-.049a28 28 0 0 0 3.15-.708l1.832-.734c0 1.907-.952 8.896-1.954 10.509l-.091.147c-.963 1.553-1.821 2.937-3.621 3.885-1.856.978-4.055 1.466-6.57 1.466s-4.787-.562-6.473-1.71c-1.685-1.124-2.539-2.811-2.539-5.059 0-1.564.439-2.835 1.294-3.837m-30.677 53.403c2.582 2.678 4.426 5.799 5.481 9.279l-.002.007c2.156 7.102 1.221 13.762-2.635 18.757-3.567 4.616-9.397 7.312-15.73 7.312q-.393 0-.786-.015l-135.629-.002h-.095c-5.618-.218-10.742-2.777-14.427-7.21-3.764-4.526-5.633-10.581-4.873-15.801 1.2-8.244 6.736-14.197 15.592-16.758 3.05-.882 6.016-1.224 8.253-1.341 1.778-4.475 5.754-11.709 13.653-15.091 6.284-2.701 12.454-1.877 16.738-.584a33.6 33.6 0 0 1 4.215-7.833c3.999-5.506 11.382-11.901 24.407-13.074l-.093-2.764c-7.314-3.138-12.214-9.348-12.541-16.281-.31-6.447 3.59-11.105 4.037-11.613 4.203-4.792 10.104-5.506 13.25-5.506 8.593 0 14.608 4.978 16.093 13.316l.005.03c.469 2.727.449 4.167.432 4.543l-9.76-.445q-.001 0-.002.105c0-.007 0-.811-.296-2.534-.463-2.595-1.602-5.242-6.472-5.242-1.197 0-4.159.21-5.884 2.15-.127.157-1.765 2.232-1.646 4.727.171 3.612 3.879 7.192 8.817 8.514l3.498.936.122 3.619.22 6.601c11.474 1.567 18.157 8.057 21.84 13.576a36.6 36.6 0 0 1 3.546 6.793c6.807-2.957 14.625-2.952 21.29.267 7.777 3.751 11.353 10.472 12.935 14.924 4.384.118 11.101 1.286 16.386 6.574zm-13.387 25.56c3.52.137 6.7-1.168 8.5-3.502 1.896-2.456 2.245-5.895 1.016-9.942-.598-1.972-1.651-3.756-3.133-5.303-4.751-4.714-12.041-3.609-12.352-3.56l-4.833.774-.764-4.839c-.054-.341-1.41-8.445-8.679-11.95-5.366-2.593-11.997-1.752-16.898 2.139l-6.583 5.224-1.28-8.309c-.02-.113-.872-5.011-4.137-9.763-4.152-6.046-10.316-9.179-18.323-9.311-9.535-.151-16.694 2.852-21.266 8.93-3.431 4.563-4.22 9.348-4.266 9.651l-.887 7.617-6.465-4.064c-.362-.205-7.208-3.998-13.614-1.244-6.99 2.994-9.184 11.96-9.203 12.051l-.926 4.12-4.208-.32-.015-.001c-.287-.015-4.58-.249-8.897 1.049-3.215.968-7.586 2.921-8.427 8.712-.3 2.07.423 5.389 2.714 8.146 1.328 1.596 3.651 3.524 7.21 3.69h135.619z" clip-rule="evenodd"/></svg>