<svg xmlns="http://www.w3.org/2000/svg" fill="none" viewBox="0 0 512 512">
  <path fill="currentColor" d="M83.25 210a35.8 35.8 0 0 0-28.61 14.15h13.13a27 27 0 0 1 15.48-5.05h68.52a40.7 40.7 0 0 1-31.98 15.49H56.82a35.9 35.9 0 0 0-29.8 15.99h12.13a27.2 27.2 0 0 1 17.67-6.74h63.3c17 0 33-8.58 42.1-23.4a6.74 6.74 0 0 0-5.9-10.44zm20.03 56.91a40.3 40.3 0 0 0 31.98-15.66H122.3a31.5 31.5 0 0 1-19.02 6.4h-50.5a16.8 16.8 0 0 0-14.15 7.58l-16.33 24.4a7.68 7.68 0 0 0 6.4 11.96h21.55a23 23 0 0 0 19.02-9.93l6.9-9.77H64.9l-3.2 4.55a14 14 0 0 1-11.44 5.9H31.73L46.2 270.6a7.8 7.8 0 0 1 6.56-3.36h50.5zm91.09-25.59-2.87 13.47h21.55l-1.34 6.9h-21.55l-3.37 17h-8.25l9.1-44.27h31.98l-1.35 6.73h-24.24zm32.49-9.6h7.9l-9.42 47.14h-7.91zm24.74 47.31a19 19 0 0 1-8.58-1.85 14 14 0 0 1-7.75-13.13q0-5.55 2.53-10.1a18.5 18.5 0 0 1 7.07-6.9 22 22 0 0 1 10.44-2.53c3.37 0 6.23.67 8.75 1.68 2.4 1.19 4.4 3.06 5.73 5.39a15 15 0 0 1 2.02 7.74 18.9 18.9 0 0 1-9.77 17.18 21.4 21.4 0 0 1-10.44 2.69zm.5-6.73a11.3 11.3 0 0 0 10.11-6.23 12 12 0 0 0 1.68-6.57c0-2.7-.84-4.71-2.35-6.23-1.69-1.51-3.87-2.19-6.74-2.19a11.3 11.3 0 0 0-10.1 6.07 13.6 13.6 0 0 0-1.51 6.73 8.4 8.4 0 0 0 2.35 6.06c1.69 1.68 3.7 2.36 6.74 2.36zm34.18-5.05-.16 1.34c0 2.7 1.34 3.88 4.04 3.88a8 8 0 0 0 4.37-1.35l1.35 5.9a15 15 0 0 1-8.08 2.01c-2.57.15-5.1-.7-7.07-2.36a8.4 8.4 0 0 1-2.7-6.73c0-1.01 0-1.68.34-2.7l3.2-15.99h-5.56l1.35-6.23h5.39l1.68-7.74h7.75l-1.52 7.74h9.1l-1.19 6.23h-9.25zm25.26 0v1.34c0 2.7 1.17 3.88 3.87 3.88 1.68 0 3.2-.51 4.54-1.35l1.35 5.9a15 15 0 0 1-8.25 2.01 10 10 0 0 1-6.9-2.36 8.4 8.4 0 0 1-2.7-6.73l.17-2.7 3.37-15.99h-5.55l1.17-6.23h5.56l1.51-7.74h7.92l-1.69 7.74h9.26l-1.34 6.23h-9.1zm53.87-22.56-6.74 33.84h-7.57l.67-3.37a16 16 0 0 1-10.94 3.87c-2.7 0-5.22-.67-7.58-1.68a13.3 13.3 0 0 1-5.38-5.22 20.7 20.7 0 0 1 .5-18.18 18.5 18.5 0 0 1 16.84-9.6c5.22 0 9.09 1.68 11.44 5.39l.85-5.05zm-22.73 27.6a11.3 11.3 0 0 0 10.1-6.22 12 12 0 0 0 1.69-6.57c0-2.7-.85-4.71-2.36-6.23-1.68-1.51-3.87-2.19-6.74-2.19a11.3 11.3 0 0 0-10.1 6.07 13.6 13.6 0 0 0-1.51 6.73 8.4 8.4 0 0 0 2.36 6.06c1.68 1.68 3.7 2.36 6.73 2.36zm50.68-27.94c3.87 0 6.73 1.01 9.09 3.03 2.18 1.85 3.36 4.72 3.36 8.42l-.5 4.04-3.7 18.69h-7.92l3.7-18.52.17-2.7c0-4.04-2.19-6.06-6.73-6.06-2.86 0-5.39.84-7.24 2.53a12.5 12.5 0 0 0-3.87 7.24l-3.54 17.5h-7.9l6.73-33.66h7.57l-.84 3.53a16.8 16.8 0 0 1 11.78-4.04zm60.43-12.8-9.43 47.14h-7.57l.67-3.53c-3 2.56-6.83 3.94-10.77 3.87-2.7 0-5.39-.67-7.58-1.68a13.3 13.3 0 0 1-5.38-5.22 20.9 20.9 0 0 1 .5-18.18 18 18 0 0 1 16.67-9.6c2.52 0 5.05.34 6.73 1.35a10 10 0 0 1 4.71 3.87l3.7-18.01h7.92zm-25.25 40.75a11.1 11.1 0 0 0 10.1-6.06 15 15 0 0 0 1.68-6.74c0-2.7-1-4.71-2.52-6.23-1.68-1.51-3.7-2.19-6.57-2.19-2.19 0-4.2.51-5.89 1.69a9.6 9.6 0 0 0-4.2 4.38 14 14 0 0 0-1.52 6.73 8.4 8.4 0 0 0 2.35 6.06c1.69 1.68 3.7 2.36 6.74 2.36zm42.26 6.73c-3.37 0-6.23-.67-8.59-1.85a14 14 0 0 1-7.74-13.13q0-5.55 2.52-10.1a18.5 18.5 0 0 1 7.07-7.07 22 22 0 0 1 10.44-2.53c3.37 0 6.23.67 8.75 1.68 2.4 1.2 4.4 3.07 5.73 5.4a15 15 0 0 1 2.02 7.74c0 3.7-.84 7.07-2.7 10.1a18 18 0 0 1-7.07 7.07 22 22 0 0 1-10.43 2.7m.5-6.73a11.3 11.3 0 0 0 10.1-6.23 13.6 13.6 0 0 0 1.69-6.57c0-2.7-.85-4.71-2.36-6.23-1.69-1.51-3.87-2.19-6.74-2.19a11.3 11.3 0 0 0-10.1 6.07 13.6 13.6 0 0 0-1.51 6.73 8.4 8.4 0 0 0 2.36 6.06c1.68 1.68 3.7 2.36 6.73 2.36z"/>
</svg>
