
<svg xmlns="http://www.w3.org/2000/svg" viewBox="0 0 512 512" fill="none"><path fill="currentColor" d="M274.514 291.252c13.653 0 24.409-10.277 24.409-23.433 0-13.155-10.756-23.433-24.409-23.433s-24.409 10.278-24.409 23.433c0 13.361 10.756 23.433 24.409 23.433m0-38.644c8.688 0 15.307 6.578 15.307 15.211 0 9.045-6.412 15.417-15.307 15.417s-15.308-6.578-15.308-15.417 6.413-15.211 15.308-15.211m-72.815 38.028v-45.222h5.379l26.271 28.777v-28.777h8.895v45.222h-5.172l-26.271-28.983v28.983zm116.255-.206-17.376-45.016h9.516l.207.617 10.549 28.572 11.791-29.189h4.965v.206l11.584 28.983 10.55-29.189h9.515l-17.376 45.222h-4.964l-11.998-30.217-11.998 30.217zM407.317 295.569v-53.855l-44.888-25.283h21.72l33.925 19.116v34.533l55.231-53.649h15.308zM112.543 290.636v-45.222h33.718v7.811h-25.03v10.278h22.755v7.605h-22.755v11.511h25.03v7.811h-33.718zm-89.156 0v-45.222h33.097v7.811H32.075v10.483h22.34v7.811h-22.34v19.117zm68.264-18.5c6.619-1.85 10.549-6.783 10.549-12.95 0-8.017-6.826-13.772-16.342-13.772H66.207v45.222h8.895v-17.883h7.033l12.205 17.883h10.136zm-16.55-7.194v-11.717h10.55c4.758 0 7.654 2.261 7.654 5.961s-2.896 5.756-7.654 5.756zm81.503 25.694v-45.222h33.718v7.811h-25.03v10.278h22.755v7.605h-22.755v11.511h25.03v7.811h-33.718z"/></svg>
