<svg xmlns="http://www.w3.org/2000/svg" viewBox="0 0 512 512" fill="none"><g fill="currentColor" clip-path="url(#a)"><path d="M408.114 215.623a40.3 40.3 0 0 0-22.403 6.804 40.36 40.36 0 0 0-14.852 18.121 40.43 40.43 0 0 0-2.295 23.329 40.4 40.4 0 0 0 11.036 20.674 40.3 40.3 0 0 0 20.647 11.05 40.3 40.3 0 0 0 23.299-2.297 40.34 40.34 0 0 0 18.097-14.872A40.4 40.4 0 0 0 448.439 256a40.4 40.4 0 0 0-11.811-28.551 40.3 40.3 0 0 0-28.514-11.826m0 63.033a22.6 22.6 0 0 1-12.566-3.817 22.64 22.64 0 0 1-8.331-10.165 22.67 22.67 0 0 1 4.903-24.682 22.593 22.593 0 0 1 24.65-4.909 22.62 22.62 0 0 1 10.151 8.341 22.663 22.663 0 0 1-2.815 28.593 22.6 22.6 0 0 1-15.992 6.631zM186.142 217.144h16.961l25.701 48.318 25.586-48.318h17.076v77.712H252.4v-41.522l-21.707 41.522h-3.77l-21.707-41.414v41.414h-19.067v-77.712zM128.56 217.412h-19.139v46.406c0 3.554-1.41 6.964-3.921 9.477a13.374 13.374 0 0 1-18.93 0 13.4 13.4 0 0 1-3.921-9.477H63.525a32.58 32.58 0 0 0 9.524 23.023 32.5 32.5 0 0 0 22.993 9.536 32.5 32.5 0 0 0 22.994-9.536 32.58 32.58 0 0 0 9.524-23.023zM319.114 217.144h-28.683v77.712h28.683a38.78 38.78 0 0 0 27.44-11.381A38.88 38.88 0 0 0 357.92 256a38.88 38.88 0 0 0-11.366-27.475 38.78 38.78 0 0 0-27.44-11.381m-2.33 61.504h-7.236v-45.296h7.236a22.6 22.6 0 0 1 15.994 6.633A22.66 22.66 0 0 1 339.403 256a22.66 22.66 0 0 1-6.625 16.015 22.6 22.6 0 0 1-15.994 6.633M166.888 217.412h-19.204v77.176h19.204z"/><path d="M479.423 180.592v150.816H32.577V180.592zM491 169H21v174h470z"/></g><defs><clipPath id="a"><path fill="#fff" d="M21 169h470v174H21z"/></clipPath></defs></svg>